<mxfile host="app.diagrams.net" modified="2022-09-27T17:59:06.900Z" agent="5.0 (Windows NT 10.0; Win64; x64) AppleWebKit/537.36 (KHTML, like Gecko) Chrome/105.0.0.0 Safari/537.36" etag="6XoKEOGrFi4sG_polexr" version="20.3.7" type="github">
  <diagram id="Vxs5D-S-iRaeebPqoAX_" name="Página-1">
    <mxGraphModel dx="1730" dy="761" grid="1" gridSize="10" guides="1" tooltips="1" connect="1" arrows="1" fold="1" page="1" pageScale="1" pageWidth="827" pageHeight="1169" math="0" shadow="0">
      <root>
        <mxCell id="0" />
        <mxCell id="1" parent="0" />
        <mxCell id="tYt8t4PUDx4Q9j9jgfly-3" value="" style="edgeStyle=orthogonalEdgeStyle;rounded=0;orthogonalLoop=1;jettySize=auto;html=1;" edge="1" parent="1" source="tYt8t4PUDx4Q9j9jgfly-1" target="tYt8t4PUDx4Q9j9jgfly-2">
          <mxGeometry relative="1" as="geometry" />
        </mxCell>
        <mxCell id="tYt8t4PUDx4Q9j9jgfly-1" value="inicio" style="ellipse;whiteSpace=wrap;html=1;" vertex="1" parent="1">
          <mxGeometry x="360" y="30" width="80" height="40" as="geometry" />
        </mxCell>
        <mxCell id="tYt8t4PUDx4Q9j9jgfly-7" value="" style="edgeStyle=orthogonalEdgeStyle;rounded=0;orthogonalLoop=1;jettySize=auto;html=1;" edge="1" parent="1" source="tYt8t4PUDx4Q9j9jgfly-2" target="tYt8t4PUDx4Q9j9jgfly-6">
          <mxGeometry relative="1" as="geometry" />
        </mxCell>
        <mxCell id="tYt8t4PUDx4Q9j9jgfly-2" value="num(int)" style="shape=parallelogram;perimeter=parallelogramPerimeter;whiteSpace=wrap;html=1;fixedSize=1;" vertex="1" parent="1">
          <mxGeometry x="350" y="90" width="100" height="40" as="geometry" />
        </mxCell>
        <mxCell id="tYt8t4PUDx4Q9j9jgfly-13" value="" style="edgeStyle=orthogonalEdgeStyle;rounded=0;orthogonalLoop=1;jettySize=auto;html=1;entryX=0.5;entryY=0;entryDx=0;entryDy=0;" edge="1" parent="1" source="tYt8t4PUDx4Q9j9jgfly-6" target="tYt8t4PUDx4Q9j9jgfly-31">
          <mxGeometry relative="1" as="geometry">
            <mxPoint x="400.0344827586207" y="220.03448275862092" as="targetPoint" />
          </mxGeometry>
        </mxCell>
        <mxCell id="tYt8t4PUDx4Q9j9jgfly-6" value="&quot;Ingrese un número&quot;" style="shape=document;whiteSpace=wrap;html=1;boundedLbl=1;" vertex="1" parent="1">
          <mxGeometry x="340" y="150" width="120" height="50" as="geometry" />
        </mxCell>
        <mxCell id="tYt8t4PUDx4Q9j9jgfly-15" value="" style="edgeStyle=orthogonalEdgeStyle;rounded=0;orthogonalLoop=1;jettySize=auto;html=1;entryX=0.5;entryY=0;entryDx=0;entryDy=0;" edge="1" parent="1" target="tYt8t4PUDx4Q9j9jgfly-28">
          <mxGeometry relative="1" as="geometry">
            <mxPoint x="360.0344827586207" y="260.0344827586207" as="sourcePoint" />
            <mxPoint x="120.03448275862081" y="360" as="targetPoint" />
          </mxGeometry>
        </mxCell>
        <mxCell id="tYt8t4PUDx4Q9j9jgfly-30" value="2" style="edgeLabel;html=1;align=center;verticalAlign=middle;resizable=0;points=[];fontSize=20;" vertex="1" connectable="0" parent="tYt8t4PUDx4Q9j9jgfly-15">
          <mxGeometry x="0.7224" y="-1" relative="1" as="geometry">
            <mxPoint x="1" y="-10" as="offset" />
          </mxGeometry>
        </mxCell>
        <mxCell id="tYt8t4PUDx4Q9j9jgfly-17" value="" style="edgeStyle=orthogonalEdgeStyle;rounded=0;orthogonalLoop=1;jettySize=auto;html=1;" edge="1" parent="1" target="tYt8t4PUDx4Q9j9jgfly-32">
          <mxGeometry relative="1" as="geometry">
            <mxPoint x="360.0344827586207" y="260.0344827586207" as="sourcePoint" />
            <mxPoint x="220.0344827586207" y="360" as="targetPoint" />
          </mxGeometry>
        </mxCell>
        <mxCell id="tYt8t4PUDx4Q9j9jgfly-45" value="3" style="edgeLabel;html=1;align=center;verticalAlign=middle;resizable=0;points=[];fontSize=19;" vertex="1" connectable="0" parent="tYt8t4PUDx4Q9j9jgfly-17">
          <mxGeometry x="0.6062" relative="1" as="geometry">
            <mxPoint as="offset" />
          </mxGeometry>
        </mxCell>
        <mxCell id="tYt8t4PUDx4Q9j9jgfly-19" value="" style="edgeStyle=orthogonalEdgeStyle;rounded=0;orthogonalLoop=1;jettySize=auto;html=1;entryX=0.5;entryY=0;entryDx=0;entryDy=0;" edge="1" parent="1" target="tYt8t4PUDx4Q9j9jgfly-33">
          <mxGeometry relative="1" as="geometry">
            <mxPoint x="360.0344827586207" y="260.0344827586207" as="sourcePoint" />
            <mxPoint x="310.0344827586207" y="360" as="targetPoint" />
          </mxGeometry>
        </mxCell>
        <mxCell id="tYt8t4PUDx4Q9j9jgfly-46" value="4" style="edgeLabel;html=1;align=center;verticalAlign=middle;resizable=0;points=[];fontSize=19;" vertex="1" connectable="0" parent="tYt8t4PUDx4Q9j9jgfly-19">
          <mxGeometry x="0.3695" y="-1" relative="1" as="geometry">
            <mxPoint as="offset" />
          </mxGeometry>
        </mxCell>
        <mxCell id="tYt8t4PUDx4Q9j9jgfly-21" value="" style="edgeStyle=orthogonalEdgeStyle;rounded=0;orthogonalLoop=1;jettySize=auto;html=1;exitX=0.5;exitY=1;exitDx=0;exitDy=0;entryX=0.5;entryY=0;entryDx=0;entryDy=0;" edge="1" parent="1" source="tYt8t4PUDx4Q9j9jgfly-31" target="tYt8t4PUDx4Q9j9jgfly-34">
          <mxGeometry relative="1" as="geometry">
            <mxPoint x="400" y="300" as="sourcePoint" />
            <mxPoint x="400" y="360" as="targetPoint" />
          </mxGeometry>
        </mxCell>
        <mxCell id="tYt8t4PUDx4Q9j9jgfly-47" value="5" style="edgeLabel;html=1;align=center;verticalAlign=middle;resizable=0;points=[];fontSize=19;" vertex="1" connectable="0" parent="tYt8t4PUDx4Q9j9jgfly-21">
          <mxGeometry x="-0.1111" relative="1" as="geometry">
            <mxPoint as="offset" />
          </mxGeometry>
        </mxCell>
        <mxCell id="tYt8t4PUDx4Q9j9jgfly-54" style="edgeStyle=orthogonalEdgeStyle;rounded=0;orthogonalLoop=1;jettySize=auto;html=1;entryX=0.5;entryY=0;entryDx=0;entryDy=0;fontSize=19;" edge="1" parent="1" source="tYt8t4PUDx4Q9j9jgfly-28" target="tYt8t4PUDx4Q9j9jgfly-51">
          <mxGeometry relative="1" as="geometry">
            <Array as="points">
              <mxPoint x="120" y="480" />
              <mxPoint x="400" y="480" />
            </Array>
          </mxGeometry>
        </mxCell>
        <mxCell id="tYt8t4PUDx4Q9j9jgfly-28" value="&quot;Es Lunes&quot;" style="shape=document;whiteSpace=wrap;html=1;boundedLbl=1;" vertex="1" parent="1">
          <mxGeometry x="80" y="380" width="80" height="40" as="geometry" />
        </mxCell>
        <mxCell id="tYt8t4PUDx4Q9j9jgfly-36" value="" style="edgeStyle=orthogonalEdgeStyle;rounded=0;orthogonalLoop=1;jettySize=auto;html=1;fontSize=12;" edge="1" parent="1" source="tYt8t4PUDx4Q9j9jgfly-31" target="tYt8t4PUDx4Q9j9jgfly-35">
          <mxGeometry relative="1" as="geometry" />
        </mxCell>
        <mxCell id="tYt8t4PUDx4Q9j9jgfly-48" value="6" style="edgeLabel;html=1;align=center;verticalAlign=middle;resizable=0;points=[];fontSize=19;" vertex="1" connectable="0" parent="tYt8t4PUDx4Q9j9jgfly-36">
          <mxGeometry x="0.3882" y="-1" relative="1" as="geometry">
            <mxPoint as="offset" />
          </mxGeometry>
        </mxCell>
        <mxCell id="tYt8t4PUDx4Q9j9jgfly-38" value="" style="edgeStyle=orthogonalEdgeStyle;rounded=0;orthogonalLoop=1;jettySize=auto;html=1;fontSize=12;entryX=0.5;entryY=0;entryDx=0;entryDy=0;" edge="1" parent="1" source="tYt8t4PUDx4Q9j9jgfly-31" target="tYt8t4PUDx4Q9j9jgfly-39">
          <mxGeometry relative="1" as="geometry">
            <mxPoint x="610.0344827586207" y="375" as="targetPoint" />
          </mxGeometry>
        </mxCell>
        <mxCell id="tYt8t4PUDx4Q9j9jgfly-49" value="7" style="edgeLabel;html=1;align=center;verticalAlign=middle;resizable=0;points=[];fontSize=19;" vertex="1" connectable="0" parent="tYt8t4PUDx4Q9j9jgfly-38">
          <mxGeometry x="0.6492" y="1" relative="1" as="geometry">
            <mxPoint as="offset" />
          </mxGeometry>
        </mxCell>
        <mxCell id="tYt8t4PUDx4Q9j9jgfly-41" style="edgeStyle=orthogonalEdgeStyle;rounded=0;orthogonalLoop=1;jettySize=auto;html=1;entryX=0.5;entryY=0;entryDx=0;entryDy=0;fontSize=12;" edge="1" parent="1" source="tYt8t4PUDx4Q9j9jgfly-31" target="tYt8t4PUDx4Q9j9jgfly-40">
          <mxGeometry relative="1" as="geometry" />
        </mxCell>
        <mxCell id="tYt8t4PUDx4Q9j9jgfly-50" value="si no" style="edgeLabel;html=1;align=center;verticalAlign=middle;resizable=0;points=[];fontSize=12;" vertex="1" connectable="0" parent="tYt8t4PUDx4Q9j9jgfly-41">
          <mxGeometry x="0.737" y="1" relative="1" as="geometry">
            <mxPoint as="offset" />
          </mxGeometry>
        </mxCell>
        <mxCell id="tYt8t4PUDx4Q9j9jgfly-43" style="edgeStyle=orthogonalEdgeStyle;rounded=0;orthogonalLoop=1;jettySize=auto;html=1;entryX=0.5;entryY=0;entryDx=0;entryDy=0;fontSize=12;" edge="1" parent="1" source="tYt8t4PUDx4Q9j9jgfly-31" target="tYt8t4PUDx4Q9j9jgfly-42">
          <mxGeometry relative="1" as="geometry" />
        </mxCell>
        <mxCell id="tYt8t4PUDx4Q9j9jgfly-44" value="1" style="edgeLabel;html=1;align=center;verticalAlign=middle;resizable=0;points=[];fontSize=19;" vertex="1" connectable="0" parent="tYt8t4PUDx4Q9j9jgfly-43">
          <mxGeometry x="0.8017" relative="1" as="geometry">
            <mxPoint as="offset" />
          </mxGeometry>
        </mxCell>
        <mxCell id="tYt8t4PUDx4Q9j9jgfly-31" value="num" style="shape=hexagon;perimeter=hexagonPerimeter2;whiteSpace=wrap;html=1;fixedSize=1;fontSize=12;" vertex="1" parent="1">
          <mxGeometry x="360" y="230" width="80" height="60" as="geometry" />
        </mxCell>
        <mxCell id="tYt8t4PUDx4Q9j9jgfly-55" style="edgeStyle=orthogonalEdgeStyle;rounded=0;orthogonalLoop=1;jettySize=auto;html=1;entryX=0.5;entryY=0;entryDx=0;entryDy=0;fontSize=19;" edge="1" parent="1" source="tYt8t4PUDx4Q9j9jgfly-32" target="tYt8t4PUDx4Q9j9jgfly-51">
          <mxGeometry relative="1" as="geometry">
            <Array as="points">
              <mxPoint x="220" y="480" />
              <mxPoint x="400" y="480" />
            </Array>
          </mxGeometry>
        </mxCell>
        <mxCell id="tYt8t4PUDx4Q9j9jgfly-32" value="&lt;font style=&quot;font-size: 12px;&quot;&gt;&quot;Es martes&quot;&lt;/font&gt;" style="shape=document;whiteSpace=wrap;html=1;boundedLbl=1;fontSize=20;" vertex="1" parent="1">
          <mxGeometry x="180.01" y="380" width="79.99" height="40" as="geometry" />
        </mxCell>
        <mxCell id="tYt8t4PUDx4Q9j9jgfly-56" style="edgeStyle=orthogonalEdgeStyle;rounded=0;orthogonalLoop=1;jettySize=auto;html=1;entryX=0.5;entryY=0;entryDx=0;entryDy=0;fontSize=19;" edge="1" parent="1" source="tYt8t4PUDx4Q9j9jgfly-33" target="tYt8t4PUDx4Q9j9jgfly-51">
          <mxGeometry relative="1" as="geometry">
            <Array as="points">
              <mxPoint x="310" y="480" />
              <mxPoint x="400" y="480" />
            </Array>
          </mxGeometry>
        </mxCell>
        <mxCell id="tYt8t4PUDx4Q9j9jgfly-33" value="&lt;font style=&quot;font-size: 12px;&quot;&gt;&quot;Es miércoles&quot;&lt;/font&gt;" style="shape=document;whiteSpace=wrap;html=1;boundedLbl=1;fontSize=20;" vertex="1" parent="1">
          <mxGeometry x="270.01" y="380" width="79.99" height="50" as="geometry" />
        </mxCell>
        <mxCell id="tYt8t4PUDx4Q9j9jgfly-52" value="" style="edgeStyle=orthogonalEdgeStyle;rounded=0;orthogonalLoop=1;jettySize=auto;html=1;fontSize=19;" edge="1" parent="1" source="tYt8t4PUDx4Q9j9jgfly-34" target="tYt8t4PUDx4Q9j9jgfly-51">
          <mxGeometry relative="1" as="geometry" />
        </mxCell>
        <mxCell id="tYt8t4PUDx4Q9j9jgfly-57" style="edgeStyle=orthogonalEdgeStyle;rounded=0;orthogonalLoop=1;jettySize=auto;html=1;entryX=0.5;entryY=0;entryDx=0;entryDy=0;fontSize=19;" edge="1" parent="1" source="tYt8t4PUDx4Q9j9jgfly-34" target="tYt8t4PUDx4Q9j9jgfly-51">
          <mxGeometry relative="1" as="geometry" />
        </mxCell>
        <mxCell id="tYt8t4PUDx4Q9j9jgfly-34" value="&quot;Es Jueves&quot;" style="shape=document;whiteSpace=wrap;html=1;boundedLbl=1;fontSize=12;" vertex="1" parent="1">
          <mxGeometry x="360" y="380" width="80" height="40" as="geometry" />
        </mxCell>
        <mxCell id="tYt8t4PUDx4Q9j9jgfly-58" style="edgeStyle=orthogonalEdgeStyle;rounded=0;orthogonalLoop=1;jettySize=auto;html=1;entryX=0.5;entryY=0;entryDx=0;entryDy=0;fontSize=19;" edge="1" parent="1" source="tYt8t4PUDx4Q9j9jgfly-35" target="tYt8t4PUDx4Q9j9jgfly-51">
          <mxGeometry relative="1" as="geometry">
            <Array as="points">
              <mxPoint x="490" y="480" />
              <mxPoint x="400" y="480" />
            </Array>
          </mxGeometry>
        </mxCell>
        <mxCell id="tYt8t4PUDx4Q9j9jgfly-35" value="&quot;Es viernes&quot;" style="shape=document;whiteSpace=wrap;html=1;boundedLbl=1;" vertex="1" parent="1">
          <mxGeometry x="450" y="380" width="80" height="40" as="geometry" />
        </mxCell>
        <mxCell id="tYt8t4PUDx4Q9j9jgfly-59" style="edgeStyle=orthogonalEdgeStyle;rounded=0;orthogonalLoop=1;jettySize=auto;html=1;entryX=0.5;entryY=0;entryDx=0;entryDy=0;fontSize=19;" edge="1" parent="1" source="tYt8t4PUDx4Q9j9jgfly-39" target="tYt8t4PUDx4Q9j9jgfly-51">
          <mxGeometry relative="1" as="geometry">
            <Array as="points">
              <mxPoint x="580" y="480" />
              <mxPoint x="400" y="480" />
            </Array>
          </mxGeometry>
        </mxCell>
        <mxCell id="tYt8t4PUDx4Q9j9jgfly-39" value="&quot;Es Sábado&quot;" style="shape=document;whiteSpace=wrap;html=1;boundedLbl=1;" vertex="1" parent="1">
          <mxGeometry x="540" y="380" width="80" height="40" as="geometry" />
        </mxCell>
        <mxCell id="tYt8t4PUDx4Q9j9jgfly-60" style="edgeStyle=orthogonalEdgeStyle;rounded=0;orthogonalLoop=1;jettySize=auto;html=1;entryX=0.5;entryY=0;entryDx=0;entryDy=0;fontSize=19;" edge="1" parent="1" source="tYt8t4PUDx4Q9j9jgfly-40" target="tYt8t4PUDx4Q9j9jgfly-51">
          <mxGeometry relative="1" as="geometry">
            <Array as="points">
              <mxPoint x="685" y="480" />
              <mxPoint x="400" y="480" />
            </Array>
          </mxGeometry>
        </mxCell>
        <mxCell id="tYt8t4PUDx4Q9j9jgfly-40" value="&quot;Dato inválido&quot;" style="shape=document;whiteSpace=wrap;html=1;boundedLbl=1;fontSize=12;" vertex="1" parent="1">
          <mxGeometry x="640" y="380" width="90" height="60" as="geometry" />
        </mxCell>
        <mxCell id="tYt8t4PUDx4Q9j9jgfly-53" style="edgeStyle=orthogonalEdgeStyle;rounded=0;orthogonalLoop=1;jettySize=auto;html=1;entryX=0.5;entryY=0;entryDx=0;entryDy=0;fontSize=19;" edge="1" parent="1" source="tYt8t4PUDx4Q9j9jgfly-42" target="tYt8t4PUDx4Q9j9jgfly-51">
          <mxGeometry relative="1" as="geometry">
            <Array as="points">
              <mxPoint x="20" y="480" />
              <mxPoint x="400" y="480" />
            </Array>
          </mxGeometry>
        </mxCell>
        <mxCell id="tYt8t4PUDx4Q9j9jgfly-42" value="&quot;Es Domingo&quot;" style="shape=document;whiteSpace=wrap;html=1;boundedLbl=1;" vertex="1" parent="1">
          <mxGeometry x="-20" y="380" width="80" height="40" as="geometry" />
        </mxCell>
        <mxCell id="tYt8t4PUDx4Q9j9jgfly-51" value="fin" style="ellipse;whiteSpace=wrap;html=1;" vertex="1" parent="1">
          <mxGeometry x="370" y="520" width="60" height="40" as="geometry" />
        </mxCell>
      </root>
    </mxGraphModel>
  </diagram>
</mxfile>
